<svg xmlns="http://www.w3.org/2000/svg" viewBox="0 0 64 64" width="64" height="64">
  <defs>
    <linearGradient id="waterGradient" x1="0%" y1="0%" x2="0%" y2="100%">
      <stop offset="0%" style="stop-color:#0ea5e9;stop-opacity:1" />
      <stop offset="100%" style="stop-color:#0284c7;stop-opacity:1" />
    </linearGradient>
  </defs>
  
  <!-- Water -->
  <rect width="64" height="20" y="44" fill="url(#waterGradient)"/>
  
  <!-- Hull -->
  <path d="M10 40 L54 40 L50 45 L14 45 Z" fill="#8B5A3C"/>
  
  <!-- Deck -->
  <rect x="12" y="35" width="40" height="5" fill="#D4AF37"/>
  
  <!-- Mast -->
  <rect x="31" y="8" width="2" height="30" fill="#8B4513"/>
  
  <!-- Main Sail -->
  <path d="M33 8 L33 25 L48 20 L48 13 Z" fill="#FFFFFF" stroke="#CCCCCC" stroke-width="0.5"/>
  
  <!-- Jib Sail -->
  <path d="M31 8 L31 20 L18 18 L18 12 Z" fill="#FFFFFF" stroke="#CCCCCC" stroke-width="0.5"/>
  
  <!-- Flag -->
  <rect x="33" y="8" width="8" height="4" fill="#FF6B6B"/>
  
  <!-- Waves -->
  <path d="M0 48 Q8 46 16 48 T32 48 T48 48 T64 48" stroke="#FFFFFF" stroke-width="1" fill="none" opacity="0.6"/>
  <path d="M0 52 Q8 50 16 52 T32 52 T48 52 T64 52" stroke="#FFFFFF" stroke-width="1" fill="none" opacity="0.4"/>
</svg> 